<?xml version="1.0" standalone="no"?>
<!DOCTYPE svg PUBLIC "-//W3C//DTD SVG 1.1//EN" "http://www.w3.org/Graphics/SVG/1.1/DTD/svg11.dtd" >
<svg xmlns="http://www.w3.org/2000/svg">
<metadata></metadata>
<defs>
<font id="flama_condensedbasic" horiz-adv-x="909" >
<font-face units-per-em="2048" ascent="1638" descent="-410" />
<missing-glyph horiz-adv-x="292" />
<glyph unicode="&#xfb01;" horiz-adv-x="854" d="M63 942v127h107v203q0 94 57 150.5t152 56.5q61 0 104 -13v-120q-35 6 -73 6q-37 0 -60.5 -24t-23.5 -68v-191h135v-127h-135v-942h-156v942h-107zM594 0v1073h158v-1073h-158zM594 1253v228h158v-228h-158z" />
<glyph unicode="&#xfb02;" horiz-adv-x="919" d="M63 942v127h107v203q0 94 57 150.5t152 56.5q61 0 104 -13v-120q-35 6 -73 6q-37 0 -60.5 -24t-23.5 -68v-191h135v-127h-135v-942h-156v942h-107zM592 158v1302h158v-1261q0 -66 67 -66q26 0 53 6v-133q-52 -18 -106 -18q-88 0 -130 45t-42 125z" />
<glyph horiz-adv-x="2048" />
<glyph horiz-adv-x="2048" />
<glyph unicode="&#xd;" horiz-adv-x="2048" />
<glyph unicode=" "  horiz-adv-x="292" />
<glyph unicode="&#x09;" horiz-adv-x="292" />
<glyph unicode="&#xa0;" horiz-adv-x="292" />
<glyph unicode="!" horiz-adv-x="380" d="M113 0v242h157v-242h-157zM113 913v549h157v-549l-24 -518h-105z" />
<glyph unicode="&#x22;" horiz-adv-x="600" d="M92 1253v209h148v-209l-25 -237h-98zM362 1253v209h148v-209l-23 -237h-102z" />
<glyph unicode="#" horiz-adv-x="839" d="M51 397l8 111h140l53 473h-146l11 106h141l43 379h102l-41 -379h193l39 379h102l-37 -379h138l-9 -106h-139l-49 -473h139l-6 -111h-143l-39 -401h-107l41 401h-190l-41 -401h-102l36 401h-137zM305 508h191l51 473h-193z" />
<glyph unicode="$" horiz-adv-x="749" d="M61 371l152 6q20 -199 176 -199q75 0 112.5 51t37.5 125q0 58 -32.5 124.5t-88.5 127.5l-160 172q-81 88 -125.5 166t-44.5 160q0 114 67 194t187 93v137h115v-137q215 -28 231 -291l-139 -2q-14 178 -158 178q-70 0 -109.5 -41t-39.5 -117q0 -55 35 -110.5t98 -124.5 l147 -158q84 -99 127 -180t43 -174q0 -124 -62 -207t-173 -103v-131h-115v125q-119 13 -195.5 93t-85.5 223z" />
<glyph unicode="%" horiz-adv-x="1150" d="M76 956v314q0 99 57.5 155t149.5 56q93 0 151 -55.5t58 -155.5v-318q0 -94 -59 -149t-150 -55q-93 0 -150 55t-57 153zM190 948q0 -44 22.5 -72t70.5 -28q47 0 70.5 30.5t23.5 69.5v332q0 40 -24 70t-70 30q-48 0 -70.5 -29t-22.5 -71v-332zM246 -4l567 1470h100 l-563 -1470h-104zM659 184v305q0 101 58 162.5t149 61.5q92 0 150.5 -56.5t58.5 -156.5v-316q0 -93 -60 -150t-149 -57q-93 0 -150 54.5t-57 152.5zM774 180q0 -44 22 -72t68 -28q48 0 71 29.5t23 70.5v334q0 38 -23.5 68t-70.5 30q-45 0 -67.5 -29.5t-22.5 -68.5v-334z" />
<glyph unicode="&#x26;" horiz-adv-x="987" d="M80 375q0 294 229 428q-127 211 -127 364q0 61 16.5 116t50.5 102t92.5 74.5t135.5 27.5q131 0 204 -85.5t73 -215.5q0 -272 -244 -418q2 -5 102.5 -175.5t102.5 -176.5q36 118 57 246l133 -15q-28 -186 -110 -381q2 -4 75.5 -130.5t75.5 -135.5h-180l-84 141 q-52 -77 -126.5 -121.5t-160.5 -44.5q-105 0 -177.5 54.5t-105 142.5t-32.5 203zM242 385q0 -67 18 -125t61 -98.5t103 -40.5q59 0 108.5 38.5t83.5 98.5q-3 6 -120 210t-121 214q-133 -89 -133 -297zM338 1180q0 -101 111 -301q159 103 159 303q0 78 -36 129t-99 51 q-68 0 -101.5 -52.5t-33.5 -129.5z" />
<glyph unicode="'" horiz-adv-x="331" d="M92 1253v209h148v-209l-25 -237h-98z" />
<glyph unicode="(" horiz-adv-x="407" d="M92 569q0 239 51 483t148 427l96 -9q-57 -190 -84 -295.5t-47 -263t-20 -344.5q0 -438 151 -909l-96 -10q-94 176 -146.5 433t-52.5 488z" />
<glyph unicode=")" horiz-adv-x="407" d="M18 -342q152 464 152 909q0 143 -9 256.5t-32.5 228.5t-44 193t-64.5 225l95 9q97 -183 148.5 -427t51.5 -483q0 -232 -52.5 -488.5t-147.5 -432.5z" />
<glyph unicode="*" horiz-adv-x="649" d="M45 1274l49 84l182 -107v211h101v-211l178 107l51 -84l-188 -115l125 -184l-84 -55l-133 192l-133 -192l-84 55l122 184z" />
<glyph unicode="+" horiz-adv-x="837" d="M98 594v119h264v280h115l-2 -280h262v-119h-260v-281h-115v281h-264z" />
<glyph unicode="," horiz-adv-x="344" d="M94 10v232h158v-224l-64 -233h-84l48 225h-58z" />
<glyph unicode="-" horiz-adv-x="462" d="M55 545v135h353v-135h-353z" />
<glyph unicode="." horiz-adv-x="344" d="M94 0v242h158v-242h-158z" />
<glyph unicode="/" horiz-adv-x="491" d="M-12 -342l344 1810h117l-340 -1810h-121z" />
<glyph unicode="0" horiz-adv-x="821" d="M94 283v907q0 140 92.5 216.5t227.5 76.5q134 0 222.5 -74.5t88.5 -212.5v-915q0 -146 -88.5 -223.5t-226.5 -77.5q-141 0 -228.5 79t-87.5 224zM260 274q0 -63 40 -107t114 -44q76 0 112.5 44t36.5 109v920q0 61 -40.5 104t-110.5 43q-71 0 -111.5 -43t-40.5 -102v-924z " />
<glyph unicode="1" horiz-adv-x="526" d="M66 1376l200 86h96v-1462h-161v1290l-115 -35z" />
<glyph unicode="2" horiz-adv-x="724" d="M76 1094v75q0 143 75 228.5t209 85.5q141 0 212 -92t71 -265q0 -194 -60.5 -364.5t-174.5 -374.5l-134 -242v-2h381v-143h-573v106l209 375q96 178 143 327t47 290v35q-7 210 -131 210q-65 0 -96 -46t-31 -115v-88h-147z" />
<glyph unicode="3" horiz-adv-x="747" d="M68 311v64h153v-70q0 -84 37 -134t104 -50q75 0 110.5 65t35.5 222q0 63 -11 111.5t-28.5 77.5t-42 47.5t-47 25t-47.5 6.5h-94v149h94q157 0 157 273q0 245 -135 245q-129 0 -129 -174v-73h-149v69q0 156 76.5 237t216.5 81q95 0 160 -50.5t93.5 -131.5t28.5 -187 q0 -131 -40.5 -226.5t-127.5 -125.5v-6q48 -15 85.5 -51.5t60 -86t34 -105t11.5 -114.5q0 -206 -86 -312.5t-221 -106.5q-299 0 -299 331z" />
<glyph unicode="4" horiz-adv-x="792" d="M59 375v133l349 952h167l-366 -944h248v299l149 113v-412h117v-141h-117v-375h-149v375h-398z" />
<glyph unicode="5" horiz-adv-x="782" d="M90 276v105h152v-86q0 -75 38 -123.5t105 -48.5q65 0 105 54t40 155v276q0 191 -141 191q-83 0 -141 -92l-139 8l28 745h512v-141h-379q0 -162 -16 -463q79 76 192 76q107 0 176.5 -71t69.5 -212v-321q0 -160 -85 -254t-224 -94q-145 0 -219 81.5t-74 214.5z" />
<glyph unicode="6" horiz-adv-x="794" d="M94 289v891q0 146 87 224.5t225 78.5q134 0 210 -73t76 -191v-117h-153v100q0 61 -35.5 102.5t-102.5 41.5q-72 0 -107.5 -47t-35.5 -113v-385q35 48 91 73t114 25q110 0 176 -63.5t66 -176.5v-385q0 -136 -85.5 -215t-224.5 -79q-140 0 -220.5 85t-80.5 224zM258 274 q0 -62 37 -108.5t106 -46.5q72 0 107 45t35 106v371q0 65 -35 99t-94 34q-68 0 -111 -49t-45 -115v-336z" />
<glyph unicode="7" horiz-adv-x="710" d="M68 1315v145h587v-123q-147 -255 -221 -612t-76 -725h-161q1 387 84 738t204 577h-417z" />
<glyph unicode="8" horiz-adv-x="782" d="M82 264v264q0 76 36.5 135t98.5 91q-58 27 -89.5 84.5t-31.5 126.5v239q0 132 85 205.5t214 73.5q127 0 210 -69.5t83 -199.5v-241q0 -73 -32 -130.5t-91 -88.5q60 -26 97.5 -82.5t37.5 -132.5v-273q0 -136 -87 -210t-226 -74q-138 0 -221.5 74t-83.5 208zM246 260 q0 -60 39.5 -101.5t105.5 -41.5q70 0 108 41t38 104v285q0 63 -42.5 104t-103.5 41q-63 0 -104 -40.5t-41 -100.5v-291zM252 961q0 -62 40.5 -104t100.5 -42q64 0 103 43t39 103v253q0 60 -41.5 97t-102.5 37q-60 0 -99.5 -37.5t-39.5 -93.5v-256z" />
<glyph unicode="9" horiz-adv-x="792" d="M92 811v377q0 136 84.5 215.5t222.5 79.5q139 0 219 -84t80 -221v-867q0 -154 -85.5 -242.5t-221.5 -88.5q-133 0 -211 75.5t-78 200.5v115h152v-99q0 -68 35.5 -108.5t101.5 -40.5q68 0 106 46.5t38 117.5v389q-35 -52 -89 -78.5t-114 -26.5q-110 0 -175 63.5t-65 176.5 zM250 829q0 -65 36 -101t95 -36t106.5 48.5t47.5 111.5v344q0 60 -38 107t-106 47q-71 0 -106 -48t-35 -110v-363z" />
<glyph unicode=":" horiz-adv-x="344" d="M94 0v242h158v-242h-158zM96 817v244h156v-244h-156z" />
<glyph unicode=";" horiz-adv-x="346" d="M96 10v232h156v-224l-64 -233h-84l48 225h-56zM96 817v244h156v-244h-156z" />
<glyph unicode="&#x3c;" horiz-adv-x="833" d="M113 606l2 96l549 269l53 -109l-434 -207q372 -182 434 -215l-55 -106z" />
<glyph unicode="=" horiz-adv-x="833" d="M98 440v123h635v-123h-635zM98 725v123h635v-123h-635z" />
<glyph unicode="&#x3e;" horiz-adv-x="833" d="M115 864l55 107l549 -269v-94l-547 -272l-55 106l432 213z" />
<glyph unicode="?" horiz-adv-x="706" d="M78 1063v90q0 156 73 243t205 87q135 0 206 -96.5t73 -262.5q0 -60 -10.5 -114t-34 -104.5t-39.5 -77.5t-47 -76q-34 -55 -49 -81.5t-33 -78t-19 -98.5v-97h-143v70q3 105 30 181.5t75 154.5q37 58 56 93t36.5 96.5t17.5 127.5q0 44 -6.5 81.5t-20.5 70.5t-40.5 52 t-63.5 19q-59 0 -93 -48.5t-34 -131.5v-100h-139zM258 0v242h156v-242h-156z" />
<glyph unicode="@" horiz-adv-x="1400" d="M78 567q0 244 85.5 432.5t241.5 293t359 104.5q113 0 212.5 -38t178.5 -112t124.5 -196t45.5 -279q0 -133 -36 -246.5t-96 -190t-136.5 -123t-159.5 -56.5h-127l18 123h-6q-43 -73 -103 -107.5t-120 -34.5q-86 0 -133 48.5t-47 129.5q0 26 4 58l74 489q18 110 91.5 173 t168.5 63q58 0 105 -27t63 -80h2l18 99h139l-126 -842q88 11 160.5 86t112.5 190t40 244q0 113 -24.5 205t-67.5 155.5t-103 107t-129.5 63.5t-148.5 20q-138 0 -249.5 -58t-184 -159.5t-111.5 -237t-39 -293.5q0 -201 64.5 -345t189.5 -220q138 -82 315 -82q159 0 340 53 l17 -71q-161 -64 -363 -64q-233 0 -379 105q-135 86 -207.5 243t-72.5 377zM528 360q0 -100 105 -100q63 0 113.5 58t64.5 141l51 346q4 24 4 37q0 66 -33.5 102.5t-87.5 36.5q-61 0 -100 -41.5t-51 -114.5l-62 -417q-4 -24 -4 -48z" />
<glyph unicode="A" horiz-adv-x="931" d="M57 0l299 1464h226l292 -1464h-169l-84 436h-324l-82 -436h-158zM326 575h266l-129 695h-6z" />
<glyph unicode="B" horiz-adv-x="870" d="M119 0v1460h350q151 0 225 -93.5t74 -270.5q0 -139 -52 -229t-143 -109v-8q106 -24 156.5 -115t50.5 -229q0 -210 -80.5 -308t-220.5 -98h-360zM287 139h157q82 0 124 71t42 206q0 134 -50.5 198t-139.5 64h-133v-539zM287 815h131q84 0 135 65t51 197q0 123 -43.5 183.5 t-118.5 60.5h-155v-506z" />
<glyph unicode="C" horiz-adv-x="872" d="M98 307v842q0 152 97.5 243t259.5 91q151 0 241 -83t90 -214v-166h-151v141q0 80 -47 128t-135 48q-95 0 -140 -53t-45 -141v-817q0 -97 50 -147t139 -50q85 0 131.5 49.5t46.5 124.5v143h151v-151q0 -142 -90.5 -228.5t-240.5 -86.5q-163 0 -260 86t-97 241z" />
<glyph unicode="D" horiz-adv-x="903" d="M119 0v1460h346q152 0 246 -78t94 -229v-821q0 -163 -94.5 -247.5t-249.5 -84.5h-342zM287 147h162q95 0 139.5 55.5t44.5 131.5v803q0 78 -46.5 128t-137.5 50h-162v-1168z" />
<glyph unicode="E" horiz-adv-x="776" d="M119 0v1460h579v-143h-411v-481h329v-146h-329v-543h413v-147h-581z" />
<glyph unicode="F" horiz-adv-x="753" d="M119 0v1460h577v-143h-409v-486h325v-147h-325v-684h-168z" />
<glyph unicode="G" horiz-adv-x="890" d="M98 309v838q0 152 98 245t259 93q151 0 243.5 -83.5t92.5 -213.5v-162h-154v141q0 79 -48.5 126.5t-133.5 47.5q-96 0 -141.5 -56t-45.5 -146v-817q0 -91 49 -143t138 -52q95 0 137.5 48.5t42.5 129.5v328h-193v135h353v-475q0 -141 -91 -227t-247 -86 q-164 0 -261.5 86.5t-97.5 242.5z" />
<glyph unicode="H" horiz-adv-x="937" d="M119 0v1460h170v-635h362v635h168v-1460h-168v670h-362v-670h-170z" />
<glyph unicode="I" horiz-adv-x="407" d="M119 0v1460h170v-1460h-170z" />
<glyph unicode="J" horiz-adv-x="841" d="M78 299v238h162v-232q0 -180 163 -180q86 0 123 50t37 130v1155h168v-1145q0 -154 -86 -244.5t-244 -90.5q-156 0 -239.5 83t-83.5 236z" />
<glyph unicode="K" horiz-adv-x="878" d="M119 0v1460h170v-719l362 719h170l-284 -557l288 -903h-180l-231 745l-125 -233v-512h-170z" />
<glyph unicode="L" horiz-adv-x="749" d="M119 0v1460h168v-1313h413v-147h-581z" />
<glyph unicode="M" horiz-adv-x="1089" d="M119 0v1460h205l221 -631h4l225 631h197v-1460h-154v1159h-4l-213 -606h-115l-211 604h-4v-1157h-151z" />
<glyph unicode="N" horiz-adv-x="948" d="M119 0v1460h182l375 -1032h4v1032h147v-1460h-155l-398 1120h-6v-1120h-149z" />
<glyph unicode="O" d="M98 328v809q0 164 100.5 255t260.5 91q157 0 254.5 -84t97.5 -246v-817q0 -173 -99 -264.5t-259 -91.5q-164 0 -259.5 89t-95.5 259zM270 326q0 -84 48.5 -139.5t138.5 -55.5q92 0 139 55.5t47 139.5v827q0 83 -50.5 132.5t-139.5 49.5q-88 0 -135.5 -53t-47.5 -135v-821 z" />
<glyph unicode="P" horiz-adv-x="862" d="M119 0v1460h327q170 0 250 -112.5t80 -311.5q0 -209 -86 -327.5t-258 -118.5h-143v-590h-170zM289 731h125q196 0 196 303q0 281 -186 281h-135v-584z" />
<glyph unicode="Q" d="M98 328v809q0 164 100.5 255t260.5 91q157 0 255.5 -84t98.5 -246v-817q0 -171 -108 -252l159 -109l-104 -131l-209 152q-46 -16 -98 -16q-163 0 -259 89t-96 259zM270 326q0 -84 48.5 -139.5t138.5 -55.5q93 0 139.5 55.5t46.5 139.5v827q0 83 -49.5 132.5t-138.5 49.5 q-90 0 -137.5 -53t-47.5 -135v-821z" />
<glyph unicode="R" horiz-adv-x="882" d="M119 0v1460h321q171 0 258.5 -104.5t87.5 -300.5q0 -153 -51.5 -251t-142.5 -128l209 -676h-172l-195 637h-145v-637h-170zM289 768h147q180 0 180 272q0 121 -43.5 199t-142.5 78h-141v-549z" />
<glyph unicode="S" horiz-adv-x="798" d="M72 344l159 6q21 -233 177 -233q83 0 121 60t38 145q0 136 -127 276l-172 195q-174 185 -174 362q0 143 83 235.5t235 92.5q284 0 303 -342l-152 -4q-12 107 -50.5 158t-111.5 51q-71 0 -110 -45t-39 -132q0 -62 36.5 -122.5t106.5 -139.5l152 -172q91 -99 135.5 -195 t44.5 -208q0 -158 -84.5 -255t-236.5 -97q-149 0 -236.5 94.5t-97.5 269.5z" />
<glyph unicode="T" horiz-adv-x="815" d="M45 1317v143h725v-143h-278v-1317h-168v1317h-279z" />
<glyph unicode="U" horiz-adv-x="915" d="M113 313v1147h168v-1130q0 -99 52 -150t132 -51q89 1 134 55q42 51 42 133v11v1132h160v-1134q1 -160 -94.5 -253t-253.5 -93q-155 0 -247.5 84t-92.5 249z" />
<glyph unicode="V" horiz-adv-x="811" d="M39 1460h168l203 -1136h4l204 1136h154l-276 -1470h-177z" />
<glyph unicode="W" horiz-adv-x="1191" d="M53 1460h168l135 -1067h6l160 1067h168l160 -1065h4l133 1065h152l-207 -1470h-158l-172 1116h-6l-170 -1116h-158z" />
<glyph unicode="X" horiz-adv-x="808" d="M39 0l272 739l-258 721h176l183 -528l182 528h158l-256 -708l274 -752h-176l-197 557l-196 -557h-162z" />
<glyph unicode="Y" horiz-adv-x="794" d="M35 1462h176l199 -633l190 633h160l-277 -844v-618h-168v623z" />
<glyph unicode="Z" horiz-adv-x="727" d="M66 0v121l413 1196h-401v143h590v-119l-414 -1194h408v-147h-596z" />
<glyph unicode="[" horiz-adv-x="430" d="M109 -344v1804h284v-98h-145v-1608h145v-98h-284z" />
<glyph unicode="\" horiz-adv-x="491" d="M29 1466h114l355 -1812h-121z" />
<glyph unicode="]" horiz-adv-x="430" d="M39 -244h145v1606h-145v98h285v-1804h-285v100z" />
<glyph unicode="^" horiz-adv-x="722" d="M145 418l158 657h121l141 -657h-119l-86 438q-94 -434 -94 -438h-121z" />
<glyph unicode="_" horiz-adv-x="776" d="M0 -119h776v-119h-776v119z" />
<glyph unicode="`" horiz-adv-x="450" d="M57 1483h170l140 -293h-121z" />
<glyph unicode="a" horiz-adv-x="747" d="M74 303q0 156 90.5 249.5t230.5 96.5h86v207q0 52 -30.5 81.5t-88.5 29.5q-57 0 -88.5 -28.5t-31.5 -80.5v-108h-146v110q0 105 76.5 169.5t204.5 64.5q121 0 191.5 -64.5t70.5 -173.5v-596q0 -80 8 -260h-143q0 4 -3 47t-3 70h-6q-27 -68 -83.5 -101.5t-113.5 -33.5 q-97 0 -159 81t-62 240zM233 322q0 -213 111 -213q56 0 96.5 52t40.5 122v262h-82q-70 0 -118 -53.5t-48 -169.5z" />
<glyph unicode="b" horiz-adv-x="790" d="M119 0v1460h157v-489h5q33 63 88 94t112 31q107 0 162 -66.5t55 -161.5v-639q0 -115 -68.5 -181t-174.5 -66q-62 0 -114 32t-75 88h-2l-4 -102h-141zM276 301q0 -75 44 -131.5t104 -56.5q117 0 117 133v583q0 60 -29 96t-90 36q-59 0 -102.5 -58.5t-43.5 -142.5v-459z " />
<glyph unicode="c" horiz-adv-x="731" d="M92 274v525q0 140 82 217.5t209 77.5q129 0 199.5 -69t70.5 -175v-109h-141v99q0 51 -30.5 87t-96.5 36q-69 0 -101 -43t-32 -109v-543q0 -70 31.5 -112.5t101.5 -42.5q39 0 65.5 12.5t39 33.5t17.5 41.5t5 43.5v92h141v-105q0 -115 -72.5 -183t-201.5 -68 q-134 0 -210.5 76.5t-76.5 217.5z" />
<glyph unicode="d" horiz-adv-x="792" d="M92 213v639q0 108 67 175t169 67q129 0 184 -105h2v471h160v-1460h-139l-7 121h-6q-22 -49 -60 -81.5t-75 -45t-74 -12.5q-109 0 -165 65.5t-56 165.5zM252 252q0 -62 28.5 -98.5t88.5 -36.5q62 0 104.5 61t42.5 144v452q0 75 -44.5 133t-102.5 58q-117 0 -117 -142v-571 z" />
<glyph unicode="e" horiz-adv-x="739" d="M92 285v497q0 146 81.5 229t213.5 83q129 0 198.5 -78.5t69.5 -210.5v-316h-403v-182q0 -98 40 -145t132 -47q76 0 184 43l37 -115q-110 -63 -248 -63q-143 0 -224 77t-81 228zM252 610h258v203q0 64 -30.5 107t-98.5 43q-65 0 -97 -45t-32 -109v-199z" />
<glyph unicode="f" horiz-adv-x="524" d="M70 942v127h106v203q0 94 57 150.5t152 56.5q61 0 104 -13v-120q-35 6 -73 6q-37 0 -60.5 -24t-23.5 -68v-191h135v-127h-135v-942h-156v942h-106z" />
<glyph unicode="g" horiz-adv-x="790" d="M92 264v578q0 117 68 184.5t170 67.5q59 0 114 -30t78 -89h4v100h146v-1102q0 -157 -86 -239t-238 -82q-139 0 -246 49l48 127q104 -43 194 -43q170 0 170 178v195h-4q-28 -63 -83.5 -98t-113.5 -35q-108 0 -164.5 68t-56.5 171zM250 293q0 -59 28 -98t91 -39 q59 0 102 55.5t43 134.5v434q0 77 -46 133t-103 56q-53 0 -84 -39t-31 -107v-530z" />
<glyph unicode="h" horiz-adv-x="802" d="M119 0v1460h157v-497h3q68 131 219 131q86 0 141 -54t55 -143v-897h-157v831q0 130 -113 130q-62 0 -105 -62t-43 -139v-760h-157z" />
<glyph unicode="i" horiz-adv-x="395" d="M119 0v1073h157v-1073h-157zM119 1253v228h157v-228h-157z" />
<glyph unicode="j" horiz-adv-x="397" d="M-2 -215h45q44 0 62 24.5t18 73.5v1190h158v-1212q0 -95 -52.5 -152t-146.5 -57q-26 0 -84 8v125zM123 1253v228h158v-228h-158z" />
<glyph unicode="k" horiz-adv-x="739" d="M119 0v1460h157v-880l256 493h162l-202 -368l202 -705h-166l-153 561l-99 -174v-387h-157z" />
<glyph unicode="l" horiz-adv-x="436" d="M115 158v1302h157v-1261q0 -66 68 -66q26 0 53 6v-133q-53 -18 -106 -18q-88 0 -130 45t-42 125z" />
<glyph unicode="m" horiz-adv-x="1222" d="M119 0v1073h151v-115h2q33 66 93.5 101t132.5 35q69 0 120 -36t66 -97h2q37 66 98 99.5t134 33.5q85 0 140.5 -54t55.5 -143v-897h-158v831q0 130 -112 130q-62 0 -104.5 -55.5t-45.5 -127.5v-778h-157v834q-3 127 -113 127q-62 0 -105 -61t-43 -138v-762h-157z" />
<glyph unicode="n" horiz-adv-x="802" d="M119 0v1073h151v-112h2q33 64 93.5 98.5t132.5 34.5q86 0 141 -54t55 -143v-897h-157v831q0 130 -113 130q-62 0 -105 -61t-43 -138v-762h-157z" />
<glyph unicode="o" horiz-adv-x="774" d="M92 279v520q0 140 84 217.5t213 77.5q130 0 211.5 -74.5t81.5 -212.5v-526q0 -147 -82.5 -224t-214.5 -77q-136 0 -214.5 77.5t-78.5 221.5zM252 270q0 -67 34 -112t103 -45q133 0 133 157v539q0 66 -34.5 110t-102.5 44t-100.5 -44.5t-32.5 -111.5v-537z" />
<glyph unicode="p" horiz-adv-x="790" d="M119 -332v1405h151v-110h4q30 63 89.5 97t117.5 34q108 0 162.5 -66t54.5 -166v-635q0 -111 -63.5 -179t-171.5 -68q-57 0 -107 28t-77 80h-3v-420h-157zM276 291q0 -77 42 -126.5t108 -49.5q115 0 115 135v579q0 59 -29 94t-90 35q-63 0 -104.5 -54t-41.5 -138v-475z " />
<glyph unicode="q" horiz-adv-x="790" d="M92 213v639q0 106 67 174t173 68q60 0 114 -30t80 -91h4l2 100h140v-1405h-158v428h-2q-37 -59 -90 -87.5t-109 -28.5q-106 0 -163.5 65.5t-57.5 167.5zM250 254q0 -63 32 -102t91 -39q57 0 99 56.5t42 133.5v473q0 79 -44 136t-103 57q-56 0 -86.5 -39t-30.5 -105v-571z " />
<glyph unicode="r" horiz-adv-x="557" d="M119 0v1073h155v-121h2q57 129 187 129q41 0 55 -4v-153q-10 1 -26.5 2.5t-28.5 2.5t-19 1q-74 0 -120.5 -42t-47.5 -124v-764h-157z" />
<glyph unicode="s" horiz-adv-x="667" d="M66 260l151 2q8 -76 37.5 -114.5t89.5 -38.5q52 0 81.5 31t29.5 91q0 54 -32.5 105t-94.5 119l-95 104q-71 78 -106 143t-35 142q0 104 67 177t195 73q110 0 178 -68.5t74 -204.5l-141 -6q-8 83 -35 119.5t-82 36.5q-52 0 -80 -31.5t-28 -79.5q0 -73 96 -178l117 -129 q79 -89 116 -162.5t37 -148.5q0 -107 -68 -183.5t-196 -76.5q-120 0 -193.5 72t-82.5 206z" />
<glyph unicode="t" horiz-adv-x="538" d="M61 938v131h107v244h156v-244h170v-131h-170v-739q0 -39 15.5 -56.5t49.5 -17.5q48 0 88 14v-129q-74 -24 -131 -24q-77 0 -127.5 40.5t-50.5 127.5v784h-107z" />
<glyph unicode="u" horiz-adv-x="802" d="M109 178v895h157v-833q0 -125 113 -125q62 0 104.5 60.5t42.5 135.5v762h158v-1073h-152v117h-2q-35 -67 -95 -103.5t-130 -36.5q-86 0 -141 55t-55 146z" />
<glyph unicode="v" horiz-adv-x="686" d="M35 1073h166l147 -809h4l154 809h147l-227 -1077h-164z" />
<glyph unicode="w" horiz-adv-x="1042" d="M45 1073h166l108 -751h7l129 751h155l131 -751h7l108 751h148l-189 -1075h-143l-142 797h-6l-143 -797h-148z" />
<glyph unicode="x" horiz-adv-x="684" d="M29 0l227 547l-213 526h166l145 -381l142 381h143l-209 -516l227 -557h-165l-158 406l-160 -406h-145z" />
<glyph unicode="y" horiz-adv-x="688" d="M35 1073h164l161 -766h7l143 766h145l-254 -1159q-30 -136 -84.5 -201t-146.5 -65q-60 0 -115 14l19 129q46 -12 80 -12q36 0 60.5 19.5t37.5 72.5l35 152z" />
<glyph unicode="z" horiz-adv-x="622" d="M61 0v109l328 833h-321v131h497v-121l-323 -819h325v-133h-506z" />
<glyph unicode="{" horiz-adv-x="448" d="M57 557v105q39 7 53.5 28t14.5 62v557q0 74 36.5 112.5t100.5 38.5h148v-98h-111q-37 0 -37 -47v-543q0 -62 -17.5 -100t-62.5 -56v-8q46 -20 63 -54.5t17 -98.5v-654q0 -27 9 -37t28 -10h111v-98h-148q-137 0 -137 139v658q0 51 -14.5 75.5t-53.5 28.5z" />
<glyph unicode="|" horiz-adv-x="483" d="M186 -213v1677h111v-1677h-111z" />
<glyph unicode="}" horiz-adv-x="448" d="M33 -246h110q19 0 28 10t9 37v654q0 64 17 99t65 54v8q-45 18 -63.5 56.5t-18.5 99.5v543q0 49 -37 49h-110v98h147q65 0 101 -38.5t36 -112.5v-559q0 -41 14.5 -62t53.5 -28v-105q-39 -4 -53.5 -28.5t-14.5 -75.5v-658q0 -139 -137 -139h-147v98z" />
<glyph unicode="~" horiz-adv-x="821" d="M94 553q10 84 47 136t103 52q42 0 168.5 -27.5t162.5 -27.5q28 0 43 18t25 56l84 -17q-10 -82 -46.5 -135t-100.5 -53q-40 0 -171 29.5t-163 29.5q-28 0 -43 -18t-25 -57z" />
<glyph unicode="&#xa1;" horiz-adv-x="380" d="M113 233l24 519h105l28 -519v-548h-157v548zM113 905v242h157v-242h-157z" />
<glyph unicode="&#xa2;" horiz-adv-x="724" d="M82 332v491q0 122 60.5 194.5t164.5 90.5v162h135v-162q99 -18 152 -84t53 -158v-114h-145v110q0 52 -30 88.5t-97 36.5q-70 0 -101.5 -42.5t-31.5 -108.5v-510q0 -71 31 -115.5t102 -44.5q39 0 65.5 13t39 34.5t17.5 42t5 43.5v117h145v-127q0 -98 -53.5 -162.5 t-151.5 -77.5v-162h-135v160q-108 14 -166.5 87.5t-58.5 197.5z" />
<glyph unicode="&#xa3;" horiz-adv-x="845" d="M76 0v139h104v541h-92v121h92v381q0 77 25 136t69 94t99 53t119 18q127 0 200.5 -69t73.5 -187v-135h-145v127q0 64 -37 97.5t-99 33.5q-59 0 -99 -36t-40 -118v-395h262v-121h-262v-541h436l-28 -139h-678z" />
<glyph unicode="&#xa4;" horiz-adv-x="690" d="M70 922l63 61l68 -68q63 48 143 48q77 0 141 -43l70 71l63 -63l-69 -70q49 -68 49 -147t-47 -144l70 -67l-62 -64l-70 68q-64 -43 -143 -43q-77 0 -139 41l-70 -72l-63 64l69 69q-49 67 -49 150q0 75 45 139q-9 7 -35 34t-34 36zM184 707q0 -67 45 -117.5t115 -50.5 q76 0 119 48t43 126q0 74 -46 122t-114 48q-75 0 -118.5 -47t-43.5 -129z" />
<glyph unicode="&#xa5;" horiz-adv-x="772" d="M23 1462h176l196 -628l191 628h162l-261 -807h205v-114h-221v-541h-168v541h-221v114h207z" />
<glyph unicode="&#xa6;" horiz-adv-x="542" d="M193 -90v729h118v-729h-118zM193 784v686h118v-686h-118z" />
<glyph unicode="&#xa7;" horiz-adv-x="763" d="M80 195v67h133v-47q0 -87 46.5 -136.5t127.5 -49.5q80 0 120 50t40 122q0 124 -137 186q-58 31 -115 49q-207 86 -207 269q0 140 135 241q-70 47 -100.5 104.5t-30.5 141.5q0 121 76 199.5t217 78.5q131 0 207 -71t76 -199v-65h-127v57q0 74 -41.5 119t-114.5 45 q-72 0 -114 -42.5t-42 -115.5q0 -61 35.5 -106t87.5 -72l125 -57q207 -99 207 -263q0 -153 -131 -245q68 -38 105 -101.5t34 -144.5q0 -131 -87 -212t-226 -81q-55 0 -105 14.5t-95 45t-72 87t-27 132.5zM223 711q0 -55 35.5 -93t79.5 -55l102 -43q107 54 107 164 q0 90 -113 150q-98 43 -106 47q-43 -26 -74 -69t-31 -101z" />
<glyph unicode="&#xa8;" horiz-adv-x="602" d="M102 1217v245h136v-245h-136zM367 1217v245h135v-245h-135z" />
<glyph unicode="&#xa9;" horiz-adv-x="1427" d="M86 721q0 160 42.5 300.5t121 246.5t198.5 167.5t267 61.5q122 0 225 -41t176 -113.5t124.5 -170.5t76 -212t24.5 -239q0 -163 -40 -304.5t-116.5 -250t-197 -170.5t-272.5 -62q-156 0 -278 60.5t-197.5 168.5t-114.5 249t-39 309zM193 721q0 -323 144 -509.5t380 -186.5 q232 0 376 190t144 506q0 319 -143.5 505.5t-378.5 186.5q-237 0 -379.5 -187.5t-142.5 -504.5zM434 436v551q0 131 77 207t206 76q125 0 196.5 -67.5t71.5 -176.5v-172h-137v162q0 51 -31 87t-96 36q-135 0 -135 -156v-537q0 -153 133 -153q68 0 98.5 37.5t30.5 87.5v157 h137v-161q0 -114 -72 -184t-196 -70q-132 0 -207.5 72.5t-75.5 203.5z" />
<glyph unicode="&#xaa;" horiz-adv-x="534" d="M66 995q0 94 57 147.5t147 53.5h49v113q0 61 -67 61q-31 0 -49.5 -16.5t-18.5 -42.5v-60h-104v58q0 70 48.5 109.5t131.5 39.5t128.5 -39t45.5 -110v-344q0 -106 4 -146h-106q0 1 -0.5 7t-2 23t-3.5 34q-20 -39 -54 -57.5t-69 -18.5q-60 0 -98.5 47.5t-38.5 140.5z M90 635v102h344v-102h-344zM178 1008q0 -111 66 -111q32 0 53.5 24.5t21.5 57.5v145h-49q-40 0 -66 -28.5t-26 -87.5z" />
<glyph unicode="&#xab;" horiz-adv-x="708" d="M43 563l201 297l90 -57l-121 -238l127 -241l-94 -54zM338 563l199 291l90 -55l-121 -234l127 -235l-96 -56z" />
<glyph unicode="&#xac;" horiz-adv-x="866" d="M68 582v116h718v-340h-122v224h-596z" />
<glyph unicode="&#xad;" horiz-adv-x="462" d="M55 545v135h353v-135h-353z" />
<glyph unicode="&#xae;" horiz-adv-x="823" d="M68 1079q0 190 96 314.5t256 124.5q156 0 253 -124t97 -315q0 -185 -96 -311.5t-258 -126.5q-108 0 -188.5 60t-120 158t-39.5 220zM145 1079q0 -169 79 -269.5t192 -100.5q117 0 195.5 100.5t78.5 269.5q0 168 -80 270.5t-194 102.5q-113 0 -192 -102t-79 -271zM283 811 v549h141q70 0 107.5 -42.5t37.5 -117.5q0 -54 -21.5 -94t-58.5 -55l93 -240h-90l-82 223h-43v-223h-84zM367 1102h49q67 0 67 90q0 40 -17.5 68t-51.5 28h-47v-186z" />
<glyph unicode="&#xaf;" horiz-adv-x="636" d="M119 1223v127h399v-127h-399z" />
<glyph unicode="&#xb0;" horiz-adv-x="481" d="M68 1305q0 72 50 124t122 52q74 0 124 -51t50 -123q0 -71 -50.5 -122.5t-123.5 -51.5q-74 0 -123 51t-49 121zM147 1305q0 -40 27 -69.5t66 -29.5q40 0 67 29t27 70q0 43 -26.5 72.5t-67.5 29.5q-40 0 -66.5 -29.5t-26.5 -72.5z" />
<glyph unicode="&#xb1;" horiz-adv-x="837" d="M98 668v118h264v267h115v-267h260v-118h-260v-260h-115v260h-264zM102 168v119h633v-119h-633z" />
<glyph unicode="&#xb2;" horiz-adv-x="507" d="M66 1354v51q0 90 50 142t140 52q93 0 143 -55.5t50 -157.5q0 -54 -10.5 -103t-35 -100t-44 -83.5t-56.5 -89.5l-76 -127h226v-105h-379v80l143 219q54 95 80.5 163.5t26.5 133.5v15q0 106 -72 106q-36 0 -54 -27t-18 -67v-47h-114z" />
<glyph unicode="&#xb3;" horiz-adv-x="524" d="M63 963v38h117v-43q0 -43 21.5 -70.5t56.5 -27.5q78 0 78 141q0 71 -28.5 104.5t-63.5 33.5h-60v98h56q88 0 88 135q0 123 -74 123q-36 0 -55 -28t-19 -72v-37h-112v45q0 92 50 143t142 51q91 0 140 -57.5t49 -153.5q0 -69 -25 -122t-76 -72v-4q57 -18 86 -72t29 -123 q0 -119 -56 -178t-147 -59q-100 0 -148.5 57.5t-48.5 149.5z" />
<glyph unicode="&#xb4;" horiz-adv-x="456" d="M100 1190l140 293h172l-189 -293h-123z" />
<glyph unicode="&#xb5;" horiz-adv-x="808" d="M98 -365v1436h162v-825q0 -62 33 -95.5t90 -33.5q62 0 107 49.5t45 136.5v768h161v-795q0 -97 66 -120v-160q-149 24 -174 141q-26 -73 -77 -115t-124 -42q-58 0 -104.5 27.5t-65.5 80.5h-6l47 -432z" />
<glyph unicode="&#xb6;" horiz-adv-x="876" d="M82 961q0 146 35.5 255.5t115.5 176.5t197 67h383v-100h-102v-1493h-107v1493h-147v-1493h-105v635q-94 20 -156 86.5t-88 159.5t-26 213z" />
<glyph unicode="&#xb7;" horiz-adv-x="344" d="M94 582v239h158v-239h-158z" />
<glyph unicode="&#xb8;" horiz-adv-x="526" d="M86 -264q78 -19 139 -19q80 0 80 52q0 26 -23.5 38t-68.5 15l-57 4l45 197h80l-31 -129q178 -9 178 -123q0 -66 -56.5 -107t-138.5 -41q-75 0 -147 19v94z" />
<glyph unicode="&#xb9;" horiz-adv-x="411" d="M68 1542l139 55h72v-819h-121v695l-74 -21z" />
<glyph unicode="&#xba;" horiz-adv-x="526" d="M72 987v293q0 85 53.5 131.5t138.5 46.5q82 0 135.5 -45t53.5 -129v-299q0 -87 -53 -131.5t-140 -44.5q-89 0 -138.5 44.5t-49.5 133.5zM92 635v100h344v-100h-344zM188 979q0 -80 74 -80t74 80v305q0 36 -18 58t-56 22q-74 0 -74 -80v-305z" />
<glyph unicode="&#xbb;" horiz-adv-x="708" d="M43 801l94 53l201 -287l-199 -291l-92 54l121 235zM334 805l96 55l203 -293l-201 -297l-92 58l123 237z" />
<glyph unicode="&#xbc;" horiz-adv-x="1181" d="M115 1411l139 55h72v-819h-121v694l-74 -20zM225 -4l586 1470h94l-583 -1470h-97zM659 201v92l218 526h127l-228 -518h131v145l117 91v-236h70v-100h-70v-201h-117v201h-248z" />
<glyph unicode="&#xbd;" horiz-adv-x="1181" d="M113 1411l139 55h72v-819h-121v694l-74 -20zM209 -4l586 1470h94l-584 -1470h-96zM700 575v52q0 90 50.5 142t140.5 52q93 0 142.5 -55.5t49.5 -157.5q0 -70 -23 -141.5t-48.5 -116t-73.5 -119.5l-76 -127h225v-104h-378v80l143 219q53 94 79.5 163t26.5 134v14 q0 107 -71 107q-36 0 -54 -27t-18 -67v-48h-115z" />
<glyph unicode="&#xbe;" horiz-adv-x="1181" d="M68 831v39h116v-43q0 -43 21.5 -70.5t56.5 -27.5q78 0 78 141q0 71 -28.5 104.5t-63.5 33.5h-60v98h56q88 0 88 135q0 123 -74 123q-36 0 -55 -28t-19 -72v-37h-112v45q0 92 50 143t142 51q91 0 140 -57.5t49 -153.5q0 -69 -25 -122t-76 -72v-4q57 -18 86 -72t29 -123 q0 -119 -56 -178t-147 -59q-100 0 -148 57t-48 149zM270 -4l586 1470h94l-583 -1470h-97zM674 201v92l217 526h127l-227 -518h131v145l116 91v-236h70v-100h-70v-201h-116v201h-248z" />
<glyph unicode="&#xbf;" horiz-adv-x="708" d="M80 23q0 60 10.5 114t34 104.5t39.5 77.5t47 76q33 53 48.5 81t33 79t18.5 98v97h144v-70q-3 -105 -30 -181.5t-75 -154.5q-37 -58 -56 -93t-36.5 -96.5t-17.5 -127.5q0 -44 6.5 -81.5t20.5 -71t40.5 -52.5t63.5 -19q58 0 92.5 49t34.5 132v100h139v-90 q0 -155 -73.5 -242.5t-205.5 -87.5q-135 0 -205.5 96.5t-72.5 262.5zM301 905v242h156v-242h-156z" />
<glyph unicode="&#xc0;" horiz-adv-x="931" d="M57 0l299 1464h226l292 -1464h-169l-84 436h-324l-82 -436h-158zM221 1866h170l139 -293h-120zM326 575h266l-129 695h-6z" />
<glyph unicode="&#xc1;" horiz-adv-x="931" d="M57 0l299 1464h226l292 -1464h-169l-84 436h-324l-82 -436h-158zM326 575h266l-129 695h-6zM410 1573l139 293h172l-189 -293h-122z" />
<glyph unicode="&#xc2;" horiz-adv-x="931" d="M57 0l299 1464h226l292 -1464h-169l-84 436h-324l-82 -436h-158zM250 1575l160 295h118l156 -295h-135l-84 178l-86 -178h-129zM326 575h266l-129 695h-6z" />
<glyph unicode="&#xc3;" horiz-adv-x="931" d="M57 0l299 1464h226l292 -1464h-169l-84 436h-324l-82 -436h-158zM195 1608q11 78 51.5 130t103.5 52q40 0 114 -29.5t111 -29.5q29 0 44 17t26 56l88 -20q-10 -76 -51 -128t-104 -52q-40 0 -118.5 29.5t-105.5 29.5q-29 0 -42 -16.5t-23 -57.5zM326 575h266l-129 695h-6z " />
<glyph unicode="&#xc4;" horiz-adv-x="931" d="M57 0l299 1464h226l292 -1464h-169l-84 436h-324l-82 -436h-158zM264 1599v246h135v-246h-135zM326 575h266l-129 695h-6zM528 1599v246h136v-246h-136z" />
<glyph unicode="&#xc5;" horiz-adv-x="931" d="M57 0l299 1464h226l292 -1464h-169l-84 436h-324l-82 -436h-158zM301 1702q0 73 47.5 123.5t120.5 50.5q77 0 122.5 -46t45.5 -118q0 -75 -48 -124.5t-120 -49.5q-77 0 -122.5 47.5t-45.5 116.5zM326 575h266l-129 695h-6zM385 1704q0 -44 23.5 -69t60.5 -25 q40 0 64 26.5t24 69.5t-23.5 70.5t-66.5 27.5q-39 0 -60.5 -27.5t-21.5 -72.5z" />
<glyph unicode="&#xc6;" horiz-adv-x="1249" d="M41 0l455 1462h675v-145h-409v-483h330v-146h-330v-541h412v-147h-578v455h-260l-127 -455h-168zM381 588h215v710h-6z" />
<glyph unicode="&#xc7;" horiz-adv-x="872" d="M98 307v842q0 152 97.5 243t259.5 91q151 0 241 -83t90 -214v-166h-151v141q0 80 -47 128t-135 48q-95 0 -140 -53t-45 -141v-817q0 -97 50 -147t139 -50q85 0 131.5 49.5t46.5 124.5v143h151v-151q0 -133 -82 -218.5t-219 -94.5l-20 -88q178 -9 178 -123q0 -66 -56 -107 t-138 -41q-76 0 -148 19v94q78 -19 139 -19q80 0 80 52q0 26 -23.5 38t-68.5 15l-57 4l35 156q-142 12 -225 96.5t-83 228.5z" />
<glyph unicode="&#xc8;" horiz-adv-x="776" d="M119 0v1460h579v-143h-411v-481h329v-146h-329v-543h413v-147h-581zM190 1866h170l140 -293h-121z" />
<glyph unicode="&#xc9;" horiz-adv-x="776" d="M119 0v1460h579v-143h-411v-481h329v-146h-329v-543h413v-147h-581zM342 1573l139 293h172l-188 -293h-123z" />
<glyph unicode="&#xca;" horiz-adv-x="776" d="M119 0v1460h579v-143h-411v-481h329v-146h-329v-543h413v-147h-581zM170 1575l160 295h119l155 -295h-135l-84 178l-86 -178h-129z" />
<glyph unicode="&#xcb;" horiz-adv-x="776" d="M119 0v1460h579v-143h-411v-481h329v-146h-329v-543h413v-147h-581zM221 1599v246h135v-246h-135zM485 1599v246h136v-246h-136z" />
<glyph unicode="&#xcc;" horiz-adv-x="407" d="M-43 1866h170l139 -293h-121zM119 0v1460h170v-1460h-170z" />
<glyph unicode="&#xcd;" horiz-adv-x="407" d="M119 0v1460h170v-1460h-170zM141 1573l140 293h172l-189 -293h-123z" />
<glyph unicode="&#xce;" horiz-adv-x="407" d="M-12 1575l159 295h119l156 -295h-135l-84 178l-86 -178h-129zM119 0v1460h170v-1460h-170z" />
<glyph unicode="&#xcf;" horiz-adv-x="407" d="M6 1599v246h135v-246h-135zM119 0v1460h170v-1460h-170zM270 1599v246h136v-246h-136z" />
<glyph unicode="&#xd0;" horiz-adv-x="921" d="M45 705v120h92v635h346q152 0 246 -78t94 -229v-821q0 -163 -94.5 -247.5t-249.5 -84.5h-342v705h-92zM305 147h162q95 0 139.5 55.5t44.5 131.5v803q0 78 -46.5 128t-137.5 50h-162v-490h238v-120h-238v-558z" />
<glyph unicode="&#xd1;" horiz-adv-x="948" d="M119 0v1460h182l375 -1032h4v1032h147v-1460h-155l-398 1120h-6v-1120h-149zM211 1608q11 78 52 130t104 52q40 0 114.5 -29.5t110.5 -29.5q29 0 44 17t26 56l88 -20q-10 -76 -51.5 -128t-104.5 -52q-40 0 -118 29.5t-105 29.5q-29 0 -42.5 -16.5t-23.5 -57.5z" />
<glyph unicode="&#xd2;" d="M98 328v809q0 164 100.5 255t260.5 91q157 0 254.5 -84t97.5 -246v-817q0 -173 -99 -264.5t-259 -91.5q-164 0 -259.5 89t-95.5 259zM213 1866h170l139 -293h-121zM270 326q0 -84 48.5 -139.5t138.5 -55.5q92 0 139 55.5t47 139.5v827q0 83 -50.5 132.5t-139.5 49.5 q-88 0 -135.5 -53t-47.5 -135v-821z" />
<glyph unicode="&#xd3;" d="M98 328v809q0 164 100.5 255t260.5 91q157 0 254.5 -84t97.5 -246v-817q0 -173 -99 -264.5t-259 -91.5q-164 0 -259.5 89t-95.5 259zM270 326q0 -84 48.5 -139.5t138.5 -55.5q92 0 139 55.5t47 139.5v827q0 83 -50.5 132.5t-139.5 49.5q-88 0 -135.5 -53t-47.5 -135v-821 zM401 1573l140 293h172l-189 -293h-123z" />
<glyph unicode="&#xd4;" d="M98 328v809q0 164 100.5 255t260.5 91q157 0 254.5 -84t97.5 -246v-817q0 -173 -99 -264.5t-259 -91.5q-164 0 -259.5 89t-95.5 259zM236 1575l159 295h119l156 -295h-135l-84 178l-86 -178h-129zM270 326q0 -84 48.5 -139.5t138.5 -55.5q92 0 139 55.5t47 139.5v827 q0 83 -50.5 132.5t-139.5 49.5q-88 0 -135.5 -53t-47.5 -135v-821z" />
<glyph unicode="&#xd5;" d="M98 328v809q0 164 100.5 255t260.5 91q157 0 254.5 -84t97.5 -246v-817q0 -173 -99 -264.5t-259 -91.5q-164 0 -259.5 89t-95.5 259zM182 1608q11 78 52 130t104 52q40 0 114 -29.5t111 -29.5q29 0 44 17t26 56l88 -20q-10 -76 -51.5 -128t-104.5 -52q-40 0 -118 29.5 t-105 29.5q-29 0 -42.5 -16.5t-23.5 -57.5zM270 326q0 -84 48.5 -139.5t138.5 -55.5q92 0 139 55.5t47 139.5v827q0 83 -50.5 132.5t-139.5 49.5q-88 0 -135.5 -53t-47.5 -135v-821z" />
<glyph unicode="&#xd6;" d="M98 328v809q0 164 100.5 255t260.5 91q157 0 254.5 -84t97.5 -246v-817q0 -173 -99 -264.5t-259 -91.5q-164 0 -259.5 89t-95.5 259zM254 1599v246h135v-246h-135zM270 326q0 -84 48.5 -139.5t138.5 -55.5q92 0 139 55.5t47 139.5v827q0 83 -50.5 132.5t-139.5 49.5 q-88 0 -135.5 -53t-47.5 -135v-821zM518 1599v246h135v-246h-135z" />
<glyph unicode="&#xd7;" horiz-adv-x="837" d="M106 887l84 84l230 -230q8 7 60 59t109 110t60 61l82 -84l-229 -228l229 -233l-82 -82l-229 229q-25 -24 -122.5 -123.5t-107.5 -109.5l-81 84l229 233q-21 20 -116.5 115.5t-115.5 114.5z" />
<glyph unicode="&#xd8;" d="M98 328v809q0 164 100.5 255t260.5 91q112 0 194 -43l39 110l92 -22l-51 -150q78 -84 78 -225v-817q0 -173 -99 -264.5t-259 -91.5q-108 0 -189 38l-37 -108l-92 24l49 142q-86 89 -86 252zM270 326l328 952q-51 57 -145 57q-88 0 -135.5 -53t-47.5 -135v-821zM322 182 q48 -51 135 -51q92 0 139 55.5t47 139.5v790z" />
<glyph unicode="&#xd9;" horiz-adv-x="915" d="M113 313v1147h168v-1130q0 -99 52 -150t132 -51q89 0 134 54.5t42 144.5v1132h160v-1134q1 -160 -94.5 -253t-253.5 -93q-155 0 -247.5 84t-92.5 249zM227 1866h170l140 -293h-121z" />
<glyph unicode="&#xda;" horiz-adv-x="915" d="M113 313v1147h168v-1130q0 -99 52 -150t132 -51q89 0 134 54.5t42 144.5v1132h160v-1134q1 -160 -94.5 -253t-253.5 -93q-155 0 -247.5 84t-92.5 249zM408 1573l139 293h172l-189 -293h-122z" />
<glyph unicode="&#xdb;" horiz-adv-x="915" d="M113 313v1147h168v-1130q0 -99 52 -150t132 -51q89 0 134 54.5t42 144.5v1132h160v-1134q1 -160 -94.5 -253t-253.5 -93q-155 0 -247.5 84t-92.5 249zM242 1575l159 295h119l156 -295h-135l-84 178l-86 -178h-129z" />
<glyph unicode="&#xdc;" horiz-adv-x="915" d="M113 313v1147h168v-1130q0 -99 52 -150t132 -51q89 0 134 54.5t42 144.5v1132h160v-1134q1 -160 -94.5 -253t-253.5 -93q-155 0 -247.5 84t-92.5 249zM260 1599v246h135v-246h-135zM524 1599v246h135v-246h-135z" />
<glyph unicode="&#xdd;" horiz-adv-x="794" d="M35 1462h176l199 -633l190 633h160l-277 -844v-618h-168v623zM350 1573l139 293h173l-189 -293h-123z" />
<glyph unicode="&#xde;" horiz-adv-x="837" d="M104 0v1460h168v-289h164q171 0 250.5 -109.5t79.5 -305.5q0 -208 -86 -325.5t-258 -117.5h-150v-313h-168zM272 451h127q103 0 151 75.5t48 225.5q0 278 -184 278h-142v-579z" />
<glyph unicode="&#xdf;" horiz-adv-x="856" d="M51 944v125h107v66q0 156 80.5 248t232.5 92q138 0 213.5 -88t75.5 -226q0 -115 -44 -224.5t-128 -176.5v-6q99 -67 156 -181t57 -241q0 -94 -25 -169t-84.5 -125t-146.5 -50q-99 0 -164 30l27 125q64 -22 112 -22q123 0 123 209q0 126 -61 216t-146 128v121h17 q63 56 105 158t42 184q0 88 -37 147t-104 59q-73 0 -108.5 -59t-35.5 -145v-1139h-157v944h-107z" />
<glyph unicode="&#xe0;" horiz-adv-x="747" d="M74 303q0 156 90.5 249.5t230.5 96.5h86v207q0 52 -30.5 81.5t-88.5 29.5q-57 0 -88.5 -28.5t-31.5 -80.5v-108h-146v110q0 105 76.5 169.5t204.5 64.5q121 0 191.5 -64.5t70.5 -173.5v-596q0 -80 8 -260h-143q0 4 -3 47t-3 70h-6q-27 -68 -83.5 -101.5t-113.5 -33.5 q-97 0 -159 81t-62 240zM137 1483h170l139 -293h-120zM233 322q0 -213 111 -213q56 0 96.5 52t40.5 122v262h-82q-70 0 -118 -53.5t-48 -169.5z" />
<glyph unicode="&#xe1;" horiz-adv-x="747" d="M74 303q0 156 90.5 249.5t230.5 96.5h86v207q0 52 -30.5 81.5t-88.5 29.5q-57 0 -88.5 -28.5t-31.5 -80.5v-108h-146v110q0 105 76.5 169.5t204.5 64.5q121 0 191.5 -64.5t70.5 -173.5v-596q0 -80 8 -260h-143q0 4 -3 47t-3 70h-6q-27 -68 -83.5 -101.5t-113.5 -33.5 q-97 0 -159 81t-62 240zM233 322q0 -213 111 -213q56 0 96.5 52t40.5 122v262h-82q-70 0 -118 -53.5t-48 -169.5zM293 1190l139 293h172l-188 -293h-123z" />
<glyph unicode="&#xe2;" horiz-adv-x="747" d="M74 303q0 156 90.5 249.5t230.5 96.5h86v207q0 52 -30.5 81.5t-88.5 29.5q-57 0 -88.5 -28.5t-31.5 -80.5v-108h-146v110q0 105 76.5 169.5t204.5 64.5q121 0 191.5 -64.5t70.5 -173.5v-596q0 -80 8 -260h-143q0 4 -3 47t-3 70h-6q-27 -68 -83.5 -101.5t-113.5 -33.5 q-97 0 -159 81t-62 240zM154 1192l159 295h119l156 -295h-135l-84 178l-86 -178h-129zM233 322q0 -213 111 -213q56 0 96.5 52t40.5 122v262h-82q-70 0 -118 -53.5t-48 -169.5z" />
<glyph unicode="&#xe3;" horiz-adv-x="747" d="M74 303q0 156 90.5 249.5t230.5 96.5h86v207q0 52 -30.5 81.5t-88.5 29.5q-57 0 -88.5 -28.5t-31.5 -80.5v-108h-146v110q0 105 76.5 169.5t204.5 64.5q121 0 191.5 -64.5t70.5 -173.5v-596q0 -80 8 -260h-143q0 4 -3 47t-3 70h-6q-27 -68 -83.5 -101.5t-113.5 -33.5 q-97 0 -159 81t-62 240zM104 1225q11 78 52 130t104 52q39 0 113.5 -29.5t111.5 -29.5q29 0 44 17t26 56l88 -20q-10 -76 -51.5 -128t-104.5 -52q-40 0 -118 29.5t-105 29.5q-29 0 -42 -16.5t-23 -57.5zM233 322q0 -213 111 -213q56 0 96.5 52t40.5 122v262h-82 q-70 0 -118 -53.5t-48 -169.5z" />
<glyph unicode="&#xe4;" horiz-adv-x="747" d="M74 303q0 156 90.5 249.5t230.5 96.5h86v207q0 52 -30.5 81.5t-88.5 29.5q-57 0 -88.5 -28.5t-31.5 -80.5v-108h-146v110q0 105 76.5 169.5t204.5 64.5q121 0 191.5 -64.5t70.5 -173.5v-596q0 -80 8 -260h-143q0 4 -3 47t-3 70h-6q-27 -68 -83.5 -101.5t-113.5 -33.5 q-97 0 -159 81t-62 240zM174 1217v245h135v-245h-135zM233 322q0 -213 111 -213q56 0 96.5 52t40.5 122v262h-82q-70 0 -118 -53.5t-48 -169.5zM438 1217v245h135v-245h-135z" />
<glyph unicode="&#xe5;" horiz-adv-x="747" d="M74 303q0 156 90.5 249.5t230.5 96.5h86v207q0 52 -30.5 81.5t-88.5 29.5q-57 0 -88.5 -28.5t-31.5 -80.5v-108h-146v110q0 105 76.5 169.5t204.5 64.5q121 0 191.5 -64.5t70.5 -173.5v-596q0 -80 8 -260h-143q0 4 -3 47t-3 70h-6q-27 -68 -83.5 -101.5t-113.5 -33.5 q-97 0 -159 81t-62 240zM201 1341q0 73 48 124t120 51q77 0 122.5 -46t45.5 -118q0 -75 -48 -124.5t-120 -49.5q-77 0 -122.5 47t-45.5 116zM233 322q0 -213 111 -213q56 0 96.5 52t40.5 122v262h-82q-70 0 -118 -53.5t-48 -169.5zM285 1343q0 -44 23.5 -69t60.5 -25 q40 0 64 27t24 70t-23.5 70.5t-66.5 27.5q-39 0 -60.5 -28t-21.5 -73z" />
<glyph unicode="&#xe6;" horiz-adv-x="1128" d="M74 303q0 156 90.5 250t230.5 96h86v207q0 52 -30.5 81.5t-88.5 29.5q-57 0 -88.5 -28.5t-31.5 -80.5v-108h-146v110q0 105 76.5 169.5t204.5 64.5q139 0 196 -84q69 84 203 84q129 0 198.5 -77.5t69.5 -211.5v-316h-403v-182q0 -96 39.5 -144t132.5 -48q98 0 186 43 l37 -115q-100 -63 -248 -63q-194 0 -262 139q-27 -54 -70.5 -87.5t-81.5 -44t-77 -10.5q-98 0 -160.5 83t-62.5 243zM233 322q0 -108 33 -160.5t86 -52.5q56 0 92.5 44.5t36.5 114.5v277h-82q-70 0 -118 -53.5t-48 -169.5zM641 610h258v203q0 64 -30.5 107t-98.5 43 q-64 0 -96.5 -44.5t-32.5 -105.5v-203z" />
<glyph unicode="&#xe7;" horiz-adv-x="731" d="M92 274v525q0 140 82 217.5t209 77.5q129 0 199.5 -69t70.5 -175v-109h-141v99q0 51 -30.5 87t-96.5 36q-69 0 -101 -43t-32 -109v-543q0 -70 31.5 -112.5t101.5 -42.5q39 0 65.5 12.5t39 33.5t17.5 41.5t5 43.5v92h141v-105q0 -103 -60.5 -169t-168.5 -78l-21 -90 q179 -9 179 -123q0 -66 -56.5 -107t-138.5 -41q-75 0 -147 19v94q78 -19 139 -19q80 0 80 52q0 26 -23.5 38t-68.5 15l-58 4l35 156q-119 9 -185.5 84.5t-66.5 207.5z" />
<glyph unicode="&#xe8;" horiz-adv-x="739" d="M92 285v497q0 146 81.5 229t213.5 83q129 0 198.5 -78.5t69.5 -210.5v-316h-403v-182q0 -98 40 -145t132 -47q76 0 184 43l37 -115q-110 -63 -248 -63q-143 0 -224 77t-81 228zM160 1483h170l139 -293h-121zM252 610h258v203q0 64 -30.5 107t-98.5 43q-65 0 -97 -45 t-32 -109v-199z" />
<glyph unicode="&#xe9;" horiz-adv-x="739" d="M92 285v497q0 146 81.5 229t213.5 83q129 0 198.5 -78.5t69.5 -210.5v-316h-403v-182q0 -98 40 -145t132 -47q76 0 184 43l37 -115q-110 -63 -248 -63q-143 0 -224 77t-81 228zM252 610h258v203q0 64 -30.5 107t-98.5 43q-65 0 -97 -45t-32 -109v-199zM315 1190l140 293 h172l-189 -293h-123z" />
<glyph unicode="&#xea;" horiz-adv-x="739" d="M92 285v497q0 146 81.5 229t213.5 83q129 0 198.5 -78.5t69.5 -210.5v-316h-403v-182q0 -98 40 -145t132 -47q76 0 184 43l37 -115q-110 -63 -248 -63q-143 0 -224 77t-81 228zM182 1192l160 295h119l155 -295h-135l-84 178l-86 -178h-129zM252 610h258v203 q0 64 -30.5 107t-98.5 43q-65 0 -97 -45t-32 -109v-199z" />
<glyph unicode="&#xeb;" horiz-adv-x="739" d="M92 285v497q0 146 81.5 229t213.5 83q129 0 198.5 -78.5t69.5 -210.5v-316h-403v-182q0 -98 40 -145t132 -47q76 0 184 43l37 -115q-110 -63 -248 -63q-143 0 -224 77t-81 228zM193 1217v245h135v-245h-135zM252 610h258v203q0 64 -30.5 107t-98.5 43q-65 0 -97 -45 t-32 -109v-199zM457 1217v245h135v-245h-135z" />
<glyph unicode="&#xec;" horiz-adv-x="395" d="M-49 1483h170l139 -293h-121zM119 0v1073h157v-1073h-157z" />
<glyph unicode="&#xed;" horiz-adv-x="395" d="M119 0v1073h157v-1073h-157zM135 1190l139 293h172l-188 -293h-123z" />
<glyph unicode="&#xee;" horiz-adv-x="395" d="M-12 1192l159 295h119l156 -295h-135l-84 178l-86 -178h-129zM119 0v1073h157v-1073h-157z" />
<glyph unicode="&#xef;" horiz-adv-x="395" d="M4 1217v245h135v-245h-135zM119 0v1073h157v-1073h-157zM268 1217v245h135v-245h-135z" />
<glyph unicode="&#xf0;" horiz-adv-x="757" d="M92 272v519q0 130 71 206t189 82q28 0 51 -10l-96 162l-174 -41l-41 94l162 37l-70 121l156 43l72 -127l149 35l41 -95l-137 -32l172 -301q43 -71 43 -166v-520q0 -147 -80.5 -223t-214.5 -76q-137 0 -215 74.5t-78 217.5zM252 260q0 -64 33.5 -105.5t101.5 -41.5 q133 0 133 153v535q0 67 -31 108t-98 41q-68 0 -103.5 -42.5t-35.5 -108.5v-539z" />
<glyph unicode="&#xf1;" horiz-adv-x="802" d="M119 0v1073h151v-112h2q33 64 93.5 98.5t132.5 34.5q86 0 141 -54t55 -143v-897h-157v831q0 130 -113 130q-62 0 -105 -61t-43 -138v-762h-157zM158 1225q11 78 51.5 130t103.5 52q39 0 114 -29.5t112 -29.5q29 0 43 17t26 56l88 -20q-10 -76 -51 -128t-104 -52 q-40 0 -118.5 29.5t-105.5 29.5q-29 0 -42 -16.5t-23 -57.5z" />
<glyph unicode="&#xf2;" horiz-adv-x="774" d="M92 279v520q0 140 84 217.5t213 77.5q130 0 211.5 -74.5t81.5 -212.5v-526q0 -147 -82.5 -224t-214.5 -77q-136 0 -214.5 77.5t-78.5 221.5zM143 1483h170l140 -293h-121zM252 270q0 -67 34 -112t103 -45q133 0 133 157v539q0 66 -34.5 110t-102.5 44t-100.5 -44.5 t-32.5 -111.5v-537z" />
<glyph unicode="&#xf3;" horiz-adv-x="774" d="M92 279v520q0 140 84 217.5t213 77.5q130 0 211.5 -74.5t81.5 -212.5v-526q0 -147 -82.5 -224t-214.5 -77q-136 0 -214.5 77.5t-78.5 221.5zM252 270q0 -67 34 -112t103 -45q133 0 133 157v539q0 66 -34.5 110t-102.5 44t-100.5 -44.5t-32.5 -111.5v-537zM319 1190 l140 293h172l-189 -293h-123z" />
<glyph unicode="&#xf4;" horiz-adv-x="774" d="M92 279v520q0 140 84 217.5t213 77.5q130 0 211.5 -74.5t81.5 -212.5v-526q0 -147 -82.5 -224t-214.5 -77q-136 0 -214.5 77.5t-78.5 221.5zM178 1192l160 295h119l155 -295h-135l-84 178l-86 -178h-129zM252 270q0 -67 34 -112t103 -45q133 0 133 157v539 q0 66 -34.5 110t-102.5 44t-100.5 -44.5t-32.5 -111.5v-537z" />
<glyph unicode="&#xf5;" horiz-adv-x="774" d="M92 279v520q0 140 84 217.5t213 77.5q130 0 211.5 -74.5t81.5 -212.5v-526q0 -147 -82.5 -224t-214.5 -77q-136 0 -214.5 77.5t-78.5 221.5zM123 1225q11 78 52 130t104 52q39 0 114 -29.5t111 -29.5q29 0 43 17t26 56l89 -20q-10 -76 -51.5 -128t-104.5 -52 q-40 0 -118 29.5t-105 29.5q-29 0 -42.5 -16.5t-23.5 -57.5zM252 270q0 -67 34 -112t103 -45q133 0 133 157v539q0 66 -34.5 110t-102.5 44t-100.5 -44.5t-32.5 -111.5v-537z" />
<glyph unicode="&#xf6;" horiz-adv-x="774" d="M92 279v520q0 140 84 217.5t213 77.5q130 0 211.5 -74.5t81.5 -212.5v-526q0 -147 -82.5 -224t-214.5 -77q-136 0 -214.5 77.5t-78.5 221.5zM193 1217v245h135v-245h-135zM252 270q0 -67 34 -112t103 -45q133 0 133 157v539q0 66 -34.5 110t-102.5 44t-100.5 -44.5 t-32.5 -111.5v-537zM457 1217v245h135v-245h-135z" />
<glyph unicode="&#xf7;" horiz-adv-x="837" d="M106 594v121h625v-121h-625zM352 266v205h137v-205h-137zM352 825v201h137v-201h-137z" />
<glyph unicode="&#xf8;" horiz-adv-x="774" d="M92 279v520q0 140 84 217.5t213 77.5q81 0 148 -31l34 96l78 -24l-43 -121q76 -79 76 -207v-526q0 -147 -82.5 -224t-214.5 -77q-70 0 -137 24l-33 -96l-80 26l41 117q-84 78 -84 228zM252 260l233 660q-37 43 -100 43q-68 0 -100.5 -44.5t-32.5 -111.5v-547zM297 143 q38 -30 92 -30q133 0 133 157v506z" />
<glyph unicode="&#xf9;" horiz-adv-x="802" d="M109 178v895h157v-833q0 -125 113 -125q62 0 104.5 60.5t42.5 135.5v762h158v-1073h-152v117h-2q-35 -67 -95 -103.5t-130 -36.5q-86 0 -141 55t-55 146zM156 1483h170l139 -293h-121z" />
<glyph unicode="&#xfa;" horiz-adv-x="802" d="M109 178v895h157v-833q0 -125 113 -125q62 0 104.5 60.5t42.5 135.5v762h158v-1073h-152v117h-2q-35 -67 -95 -103.5t-130 -36.5q-86 0 -141 55t-55 146zM336 1190l139 293h172l-188 -293h-123z" />
<glyph unicode="&#xfb;" horiz-adv-x="802" d="M109 178v895h157v-833q0 -125 113 -125q62 0 104.5 60.5t42.5 135.5v762h158v-1073h-152v117h-2q-35 -67 -95 -103.5t-130 -36.5q-86 0 -141 55t-55 146zM193 1192l159 295h119l156 -295h-135l-84 178l-86 -178h-129z" />
<glyph unicode="&#xfc;" horiz-adv-x="802" d="M109 178v895h157v-833q0 -125 113 -125q62 0 104.5 60.5t42.5 135.5v762h158v-1073h-152v117h-2q-35 -67 -95 -103.5t-130 -36.5q-86 0 -141 55t-55 146zM201 1217v245h135v-245h-135zM465 1217v245h135v-245h-135z" />
<glyph unicode="&#xfd;" horiz-adv-x="688" d="M35 1073h164l161 -766h7l143 766h145l-254 -1159q-30 -136 -84.5 -201t-146.5 -65q-60 0 -115 14l19 129q46 -12 80 -12q36 0 60.5 19.5t37.5 72.5l35 152zM305 1190l139 293h172l-188 -293h-123z" />
<glyph unicode="&#xfe;" horiz-adv-x="761" d="M104 -332v1792h156v-497h4q30 65 89 98t118 33q106 0 159.5 -66t53.5 -166v-639q0 -107 -66 -175t-169 -68q-57 0 -107.5 28t-77.5 80h-2v-420h-158zM262 276q0 -75 39.5 -120t99.5 -45q56 0 89.5 36t33.5 103v579q0 59 -31.5 97.5t-91.5 38.5q-61 0 -100 -50.5 t-39 -134.5v-504z" />
<glyph unicode="&#xff;" horiz-adv-x="688" d="M35 1073h164l161 -766h7l143 766h145l-254 -1159q-30 -136 -84.5 -201t-146.5 -65q-60 0 -115 14l19 129q46 -12 80 -12q36 0 60.5 19.5t37.5 72.5l35 152zM158 1217v245h135v-245h-135zM422 1217v245h135v-245h-135z" />
<glyph unicode="&#x152;" horiz-adv-x="1300" d="M98 330v807q0 166 92.5 256t249.5 90q63 0 118 -22.5t87 -63.5v63h578v-143h-412v-481h332v-148h-332v-541h414v-147h-580v82q-29 -41 -88.5 -69.5t-126.5 -28.5q-162 0 -247 86.5t-85 259.5zM270 326q0 -83 49 -139t138 -56q93 0 139.5 57t46.5 142v825 q0 83 -49.5 131.5t-138.5 48.5q-90 0 -137.5 -53.5t-47.5 -136.5v-819z" />
<glyph unicode="&#x153;" horiz-adv-x="1169" d="M92 279v520q0 140 84 217.5t213 77.5q140 0 217 -86q80 86 213 86q129 0 197.5 -78t68.5 -211v-316h-403v-182q0 -98 40.5 -145t133.5 -47q72 0 184 43l37 -115q-111 -63 -248 -63q-153 0 -227 86q-80 -86 -217 -86q-136 0 -214.5 77.5t-78.5 221.5zM252 270 q0 -67 34 -112t103 -45q133 0 133 157v539q0 66 -34.5 110t-102.5 44t-100.5 -44.5t-32.5 -111.5v-537zM682 610h260v203q0 63 -31.5 106.5t-99.5 43.5q-64 0 -96.5 -44t-32.5 -106v-203z" />
<glyph unicode="&#x178;" horiz-adv-x="794" d="M35 1462h176l199 -633l190 633h160l-277 -844v-618h-168v623zM201 1599v246h135v-246h-135zM465 1599v246h135v-246h-135z" />
<glyph unicode="&#x2c6;" horiz-adv-x="589" d="M80 1192l160 295h118l156 -295h-135l-84 178l-86 -178h-129z" />
<glyph unicode="&#x2dc;" horiz-adv-x="667" d="M72 1225q11 78 51.5 130t103.5 52q39 0 114 -29.5t112 -29.5q29 0 43 17t26 56l88 -20q-10 -76 -51 -128t-104 -52q-40 0 -118.5 29.5t-105.5 29.5q-29 0 -42 -16.5t-23 -57.5z" />
<glyph unicode="&#x2000;" horiz-adv-x="938" />
<glyph unicode="&#x2001;" horiz-adv-x="1876" />
<glyph unicode="&#x2002;" horiz-adv-x="938" />
<glyph unicode="&#x2003;" horiz-adv-x="1876" />
<glyph unicode="&#x2004;" horiz-adv-x="625" />
<glyph unicode="&#x2005;" horiz-adv-x="469" />
<glyph unicode="&#x2006;" horiz-adv-x="312" />
<glyph unicode="&#x2007;" horiz-adv-x="312" />
<glyph unicode="&#x2008;" horiz-adv-x="234" />
<glyph unicode="&#x2009;" horiz-adv-x="375" />
<glyph unicode="&#x200a;" horiz-adv-x="104" />
<glyph unicode="&#x2010;" horiz-adv-x="462" d="M55 545v135h353v-135h-353z" />
<glyph unicode="&#x2011;" horiz-adv-x="462" d="M55 545v135h353v-135h-353z" />
<glyph unicode="&#x2012;" horiz-adv-x="462" d="M55 545v135h353v-135h-353z" />
<glyph unicode="&#x2013;" horiz-adv-x="741" d="M0 559v117h741v-117h-741z" />
<glyph unicode="&#x2014;" horiz-adv-x="1253" d="M0 559v117h1253v-117h-1253z" />
<glyph unicode="&#x2018;" horiz-adv-x="339" d="M92 1018v221l60 225h84l-43 -215h53v-231h-154z" />
<glyph unicode="&#x2019;" horiz-adv-x="342" d="M94 1229v233h154v-223l-60 -223h-82l39 213h-51z" />
<glyph unicode="&#x201a;" horiz-adv-x="339" d="M92 66l23 178l133 -56l-10 -227l-62 -168l-63 60l24 157z" />
<glyph unicode="&#x201c;" horiz-adv-x="616" d="M92 1018v221l60 225h84l-43 -215h53v-231h-154zM367 1018v221l63 225h80l-39 -215h51v-231h-155z" />
<glyph unicode="&#x201d;" horiz-adv-x="616" d="M92 1229v233h156v-223l-60 -223h-82l39 213h-53zM369 1229v233h155v-223l-61 -223h-82l41 213h-53z" />
<glyph unicode="&#x201e;" horiz-adv-x="616" d="M92 10v234h156v-226l-60 -225h-82l39 217h-53zM369 10v234h155v-226l-61 -225h-82l41 217h-53z" />
<glyph unicode="&#x2022;" horiz-adv-x="731" d="M119 717q0 101 72.5 173.5t175.5 72.5q101 0 173 -72.5t72 -173.5q0 -103 -71.5 -175.5t-173.5 -72.5q-103 0 -175.5 72.5t-72.5 175.5z" />
<glyph unicode="&#x2026;" horiz-adv-x="989" d="M94 0v242h154v-242h-154zM418 0v242h155v-242h-155zM741 0v242h156v-242h-156z" />
<glyph unicode="&#x202f;" horiz-adv-x="375" />
<glyph unicode="&#x2039;" horiz-adv-x="421" d="M53 563l199 297l92 -57l-121 -238l127 -241l-94 -54z" />
<glyph unicode="&#x203a;" horiz-adv-x="421" d="M53 805l94 55l203 -293l-198 -297l-95 58l123 237z" />
<glyph unicode="&#x205f;" horiz-adv-x="469" />
<glyph unicode="&#x20ac;" horiz-adv-x="913" d="M63 545v108h107v164h-107v109h107v227q0 147 95.5 239.5t252.5 92.5q150 0 239 -83t89 -214v-172h-152v158q0 80 -45.5 126t-134.5 46q-91 0 -133.5 -54.5t-42.5 -140.5v-225h297v-109h-297v-164h297v-108h-297v-228q0 -92 47 -144t135 -52t131 49.5t43 128.5v139h152 v-147q0 -141 -90 -226t-240 -85q-159 0 -252.5 84.5t-93.5 236.5v244h-107z" />
<glyph unicode="&#x2122;" horiz-adv-x="960" d="M51 1378v86h344v-86h-123v-563h-98v563h-123zM457 815v649h121l92 -282l88 282h119v-649h-93v471l-82 -254h-71l-84 256v-473h-90z" />
<glyph unicode="&#x25fc;" horiz-adv-x="1075" d="M0 0v1075h1075v-1075h-1075z" />
</font>
</defs>
</svg>
